<!DOCTYPE svg PUBLIC "-//W3C//DTD SVG 1.1//EN" "http://www.w3.org/Graphics/SVG/1.1/DTD/svg11.dtd">
<!-- Uploaded to: SVG Repo, www.svgrepo.com, Transformed by: SVG Repo Mixer Tools -->
<svg height="122px" width="122px" version="1.1" id="Capa_1" xmlns="http://www.w3.org/2000/svg" xmlns:xlink="http://www.w3.org/1999/xlink" viewBox="0 0 324.239 324.239" xml:space="preserve" fill="#000000">
<g id="SVGRepo_bgCarrier" stroke-width="0"/>
<g id="SVGRepo_iconCarrier"> <g> <path style="fill:#010002;" d="M189.853,172.929c-5.047-3.258-9.143-10.171-9.143-15.452c0-5.276,4.835-10.497,10.291-13.016 c17.367-8.028,29.453-25.618,29.453-45.976c0-27.913-22.708-50.621-50.621-50.621S119.21,70.571,119.21,98.485 c0,6.005,4.873,10.878,10.878,10.878c6.005,0,10.878-4.873,10.878-10.878c0-15.915,12.95-28.865,28.865-28.865 s28.865,12.95,28.865,28.865s-12.95,28.865-28.865,28.865c-6.01,0-10.878,4.873-10.878,10.878v17.601 c0,6.005-4.21,13.326-9.404,16.35L5.409,256.082c-5.194,3.024-6.951,9.682-3.932,14.87c2.018,3.476,5.668,5.406,9.41,5.406 c1.86,0,3.742-0.473,5.461-1.474l11.21-6.527c5.194-3.024,9.818-5.39,10.334-5.33c0.31,0.033,0.62,0.054,0.941,0.054h239.841 c6.005,0,14.887,2.589,19.831,5.776l8.958,5.776c5.064,3.269,11.786,1.795,15.039-3.247c3.258-5.053,1.8-11.786-3.247-15.039 L189.853,172.929z M83.411,235.854l76.723-44.666c5.194-3.024,13.494-2.834,18.542,0.424l67.983,43.817 c5.047,3.258,4.27,5.896-1.735,5.896H84.89C78.88,241.325,78.216,238.872,83.411,235.854z"/> </g> </g>
</svg>